Coordinates
version=1
nRows=37
nColumns=38
inDegrees=no

Units are S.I. units (second, meters, Newtons, ...)
If the header above contains a line with 'inDegrees', this indicates whether rotational values are in degrees (yes) or radians (no).

endheader
time	pelvis_tilt	pelvis_list	pelvis_rotation	pelvis_tx	pelvis_ty	pelvis_tz	hip_flexion_r	hip_adduction_r	hip_rotation_r	knee_angle_r	ankle_angle_r	subtalar_angle_r	mtp_angle_r	hip_flexion_l	hip_adduction_l	hip_rotation_l	knee_angle_l	ankle_angle_l	subtalar_angle_l	mtp_angle_l	lumbar_extension	lumbar_bending	lumbar_rotation	arm_flex_r	arm_add_r	arm_rot_r	elbow_flex_r	pro_sup_r	wrist_flex_r	wrist_dev_r	arm_flex_l	arm_add_l	arm_rot_l	elbow_flex_l	pro_sup_l	wrist_flex_l	wrist_dev_l
1.07	0.660832	1.40449	0.8843	0.707475	0.84925	1.03195	-0.123407	0.0843899	-0.181639	0.14939	-0.0741569	0	0	0.413974	-0.0830722	-0.279504	0	-0.164812	0	0	-0.127229	-0.00209436	0.0866217	-0.036893	-0.450046	0.568801	0.616137	0.806603	0	0	-0.318775	-0.391176	-0.0260844	0.62465	1.40548	0	0
1.08	0.646554	1.3984	0.897462	0.706945	0.862691	1.02937	-0.125945	0.083867	-0.179862	0.159308	-0.0724316	0	0	0.422476	-0.0792332	-0.276129	0	-0.155831	0	0	-0.119349	-0.00180334	0.0844291	-0.039147	-0.449739	0.567372	0.617559	0.806922	0	0	-0.323527	-0.387665	-0.0437149	0.620316	1.41659	0	0
1.09	0.644451	1.39659	0.898145	0.706399	0.876275	1.0274	-0.132625	0.0818584	-0.176138	0.170651	-0.0725701	0	0	0.427286	-0.0751043	-0.277281	0	-0.149233	0	0	-0.117303	-0.00298342	0.0832304	-0.0406089	-0.44912	0.56629	0.619039	0.806384	0	0	-0.32597	-0.387045	-0.0532369	0.616537	1.41678	0	0
1.1	0.712102	1.39772	0.831487	0.705669	0.890496	1.02749	-0.146291	0.0993771	-0.180801	0.180135	-0.0761302	0	0	0.422157	-0.0795201	-0.280107	0	-0.144968	0	0	-0.127591	0.00352293	0.0835587	-0.0378502	-0.446731	0.567534	0.612213	0.80526	0	0	-0.32009	-0.385354	-0.0576635	0.605156	1.41631	0	0
1.11	0.724549	1.40022	0.821187	0.704921	0.904909	1.0262	-0.158149	0.0964917	-0.180922	0.193914	-0.0793337	0	0	0.423958	-0.0753181	-0.281593	0	-0.142954	0	0	-0.130191	0.000988752	0.0806398	-0.0396991	-0.443792	0.566795	0.610261	0.80415	0	0	-0.319894	-0.387334	-0.0623479	0.599691	1.41474	0	0
1.12	0.735017	1.40378	0.814211	0.7041	0.919729	1.02507	-0.168619	0.0924623	-0.181672	0.21082	-0.0852489	0	0	0.42484	-0.0705493	-0.279755	0.00704634	-0.142799	0	0	-0.13242	-0.00278808	0.0765453	-0.0416401	-0.438952	0.566416	0.605195	0.803383	0	0	-0.31952	-0.389984	-0.0669655	0.593691	1.41166	0	0
1.13	0.753221	1.40865	0.797364	0.703463	0.934574	1.02423	-0.179401	0.0879597	-0.175655	0.229756	-0.092656	0	0	0.423772	-0.0675594	-0.278394	0.0460748	-0.142845	0	0	-0.13698	-0.00677222	0.0746382	-0.0426595	-0.434115	0.566764	0.599102	0.803342	0	0	-0.318331	-0.393197	-0.0698023	0.588634	1.40698	0	0
1.14	0.76067	1.41235	0.79218	0.702762	0.950027	1.02321	-0.186475	0.0826016	-0.172071	0.252354	-0.101833	0	0	0.422893	-0.0628477	-0.270055	0.0822428	-0.14525	0	0	-0.137517	-0.0114108	0.0725191	-0.0459477	-0.427874	0.566707	0.590895	0.80351	0	0	-0.317936	-0.397457	-0.0704444	0.583137	1.40189	0	0
1.15	0.767126	1.4163	0.784989	0.702154	0.965424	1.02239	-0.189759	0.0755564	-0.164911	0.282751	-0.115096	0	0	0.420464	-0.0572161	-0.259561	0.109827	-0.157075	0	0	-0.138162	-0.0165782	0.0728561	-0.0484958	-0.42148	0.566963	0.581558	0.803076	0	0	-0.317042	-0.402002	-0.0682863	0.577758	1.39512	0	0
1.16	0.779565	1.42133	0.767568	0.701709	0.980311	1.02206	-0.189599	0.0668961	-0.149153	0.321709	-0.132227	0	0	0.416421	-0.0525078	-0.25226	0.130648	-0.181906	0	0	-0.141885	-0.0223063	0.0770326	-0.0493822	-0.416402	0.567208	0.57355	0.80109	0	0	-0.313914	-0.406456	-0.0634533	0.572686	1.38607	0	0
1.17	0.784926	1.42554	0.757733	0.701053	0.995006	1.02193	-0.18354	0.0574688	-0.130848	0.368067	-0.151875	0	0	0.414688	-0.0489251	-0.24573	0.153521	-0.202805	0	0	-0.144342	-0.02825	0.0811232	-0.050804	-0.411782	0.567094	0.566633	0.798385	0	0	-0.309028	-0.410632	-0.0575848	0.566565	1.37651	0	0
1.18	0.777078	1.42842	0.763907	0.700087	1.00968	1.02183	-0.171022	0.047481	-0.115042	0.420629	-0.175085	0	0	0.415804	-0.0463372	-0.237657	0.183782	-0.206191	0	0	-0.14383	-0.0343214	0.082848	-0.0535057	-0.406624	0.566286	0.560185	0.795085	0	0	-0.303537	-0.414595	-0.0519693	0.559955	1.36782	0	0
1.19	0.750422	1.42957	0.790479	0.698835	1.02411	1.02174	-0.150678	0.0363444	-0.101099	0.479463	-0.212848	0	0	0.420709	-0.0437526	-0.227741	0.222316	-0.190715	0	0	-0.13971	-0.040253	0.0835362	-0.0566565	-0.401403	0.566549	0.55286	0.790564	0	0	-0.296052	-0.418727	-0.0417841	0.551213	1.35607	0	0
1.2	0.718389	1.43103	0.823193	0.697396	1.03803	1.02191	-0.126482	0.0242142	-0.0882245	0.540105	-0.255035	0	0	0.426045	-0.0402473	-0.216388	0.264125	-0.169575	0	0	-0.136876	-0.0460816	0.0834063	-0.0585772	-0.397157	0.567853	0.546167	0.785739	0	0	-0.285773	-0.4224	-0.0298131	0.541784	1.34336	0	0
1.21	0.681557	1.43244	0.861024	0.695933	1.05153	1.02232	-0.0989255	0.012078	-0.0768132	0.601746	-0.305562	0	0	0.431041	-0.0354678	-0.204815	0.303056	-0.149847	0	0	-0.134648	-0.0514776	0.0831063	-0.059247	-0.393367	0.570637	0.538859	0.77951	0	0	-0.273974	-0.426387	-0.014532	0.533668	1.32725	0	0
1.22	0.651252	1.43531	0.891918	0.694495	1.06469	1.02292	-0.0711085	0.000564128	-0.0656885	0.663049	-0.352729	0	0	0.432056	-0.0296585	-0.196521	0.334007	-0.135516	0	0	-0.13622	-0.0562518	0.0829719	-0.0588488	-0.391128	0.573386	0.533863	0.773327	0	0	-0.262092	-0.429909	-0.000814024	0.529828	1.31364	0	0
1.23	0.612889	1.43685	0.929985	0.693102	1.07765	1.02331	-0.0391703	-0.00995641	-0.0536274	0.723476	-0.410517	0	0	0.432147	-0.0232602	-0.191322	0.357395	-0.120351	0	0	-0.136263	-0.0599722	0.083495	-0.0594865	-0.391041	0.576436	0.532091	0.766292	0	0	-0.251117	-0.433947	0.01586	0.529293	1.29769	0	0
1.24	0.566799	1.43698	0.974545	0.691908	1.09042	1.02353	-0.00309627	-0.0190291	-0.0398179	0.781415	-0.474173	0	0	0.430813	-0.0168132	-0.189278	0.3748	-0.106819	0	0	-0.134287	-0.0633052	0.0844189	-0.0610725	-0.392388	0.578367	0.533249	0.761359	0	0	-0.242048	-0.438583	0.0326178	0.532673	1.28257	0	0
1.25	0.521196	1.43758	1.01615	0.691061	1.10299	1.02391	0.0325163	-0.0269075	-0.0247124	0.834886	-0.542427	0	0	0.425465	-0.0107769	-0.192173	0.387514	-0.0936949	0	0	-0.13271	-0.0671032	0.0868186	-0.0630526	-0.394611	0.577766	0.537256	0.758814	0	0	-0.234906	-0.444114	0.04888	0.540556	1.26956	0	0
1.26	0.478122	1.43889	1.05336	0.690449	1.11549	1.02451	0.0674436	-0.0339269	-0.00951759	0.884566	-0.603602	0	0	0.416422	-0.0050533	-0.198944	0.39649	-0.0809033	0	0	-0.131456	-0.071113	0.0899508	-0.065604	-0.397374	0.57393	0.543589	0.759004	0	0	-0.229925	-0.449661	0.0618818	0.552206	1.25826	0	0
1.27	0.4454	1.44072	1.07994	0.689956	1.12783	1.02536	0.100686	-0.039219	0.00453753	0.930215	-0.633137	0	0	0.40423	-0.000263808	-0.206872	0.401143	-0.070265	0	0	-0.131094	-0.0741994	0.0919847	-0.0679812	-0.400228	0.567101	0.551434	0.759813	0	0	-0.227091	-0.45447	0.0693618	0.566856	1.25212	0	0
1.28	0.426915	1.44221	1.09281	0.689456	1.13999	1.02643	0.131944	-0.0420477	0.0169779	0.971188	-0.628604	0	0	0.39002	0.00286349	-0.214277	0.401396	-0.0614503	0	0	-0.131104	-0.0753082	0.0923169	-0.06937	-0.403201	0.56025	0.55938	0.761618	0	0	-0.225571	-0.458142	0.0721111	0.582887	1.24969	0	0
1.29	0.416446	1.44196	1.09823	0.688821	1.15212	1.02758	0.162794	-0.0429986	0.026945	1.0083	-0.591865	0	0	0.375631	0.00403665	-0.221323	0.398448	-0.05212	0	0	-0.129382	-0.0743778	0.0917469	-0.0702089	-0.405733	0.553461	0.565209	0.766452	0	0	-0.224537	-0.460226	0.0714911	0.598402	1.25087	0	0
1.3	0.414172	1.44053	1.09761	0.687924	1.16422	1.02887	0.193027	-0.0431027	0.0319748	1.0419	-0.53108	0	0	0.361124	0.00408587	-0.227486	0.392357	-0.0445816	0	0	-0.126907	-0.071499	0.0888302	-0.0699338	-0.407325	0.546722	0.568146	0.772564	0	0	-0.223344	-0.460251	0.0659642	0.61262	1.25876	0	0
1.31	0.422526	1.43861	1.0896	0.686649	1.17628	1.03042	0.221486	-0.0430184	0.0309072	1.06913	-0.478006	0	0	0.346359	0.00350969	-0.23142	0.384359	-0.0410568	0	0	-0.124956	-0.066598	0.0832657	-0.0681337	-0.409064	0.54405	0.568683	0.776313	0	0	-0.220825	-0.459279	0.0598051	0.62545	1.269	0	0
1.32	0.440259	1.43707	1.07466	0.685082	1.1883	1.0322	0.247309	-0.0431843	0.0255015	1.08933	-0.428615	0	0	0.330549	0.00278184	-0.232967	0.375578	-0.0395075	0	0	-0.124376	-0.0603435	0.0760535	-0.0652921	-0.41117	0.544466	0.567552	0.779877	0	0	-0.216849	-0.457691	0.0533747	0.637541	1.28085	0	0
1.33	0.464942	1.43628	1.05357	0.683462	1.20024	1.03422	0.270676	-0.0433737	0.0184768	1.10223	-0.387547	0	0	0.313284	0.0016595	-0.234906	0.366624	-0.0394438	0	0	-0.125395	-0.053439	0.0689633	-0.0622725	-0.41355	0.54577	0.566183	0.78203	0	0	-0.211638	-0.456131	0.0469512	0.650016	1.29356	0	0
1.34	0.495312	1.43626	1.02687	0.681909	1.21205	1.03641	0.291838	-0.04335	0.0108738	1.10799	-0.357011	0	0	0.294664	0.000113385	-0.238062	0.357945	-0.0400303	0	0	-0.127986	-0.0461426	0.0627004	-0.0592986	-0.416342	0.547349	0.565452	0.78274	0	0	-0.204776	-0.455577	0.044044	0.662473	1.30419	0	0
1.35	0.52806	1.43571	0.998328	0.680393	1.22386	1.03863	0.311864	-0.0427563	0.00255745	1.10684	-0.333662	0	0	0.27617	-0.00197345	-0.240543	0.349619	-0.040999	0	0	-0.130217	-0.0381627	0.0568459	-0.0569725	-0.419599	0.549505	0.564975	0.784186	0	0	-0.196839	-0.456003	0.0446797	0.674454	1.31336	0	0
1.36	0.562514	1.43502	0.968234	0.678979	1.23562	1.04088	0.330413	-0.0416288	-0.00649739	1.0999	-0.312209	0	0	0.257483	-0.0045337	-0.242271	0.34087	-0.0426667	0	0	-0.132613	-0.0300772	0.0513185	-0.0552776	-0.423071	0.551175	0.56538	0.7863	0	0	-0.188687	-0.457162	0.046467	0.687191	1.32139	0	0
1.37	0.59405	1.43406	0.941527	0.677702	1.24736	1.04306	0.34803	-0.0406719	-0.0171195	1.08845	-0.29166	0	0	0.239123	-0.00713615	-0.242928	0.331499	-0.044661	0	0	-0.134582	-0.0223785	0.0455627	-0.0542544	-0.425696	0.550466	0.565933	0.787298	0	0	-0.180673	-0.459346	0.0494209	0.700729	1.32773	0	0
1.38	0.622023	1.43304	0.918501	0.676566	1.25904	1.04515	0.36513	-0.0401329	-0.0279856	1.07278	-0.271022	0	0	0.220877	-0.00966355	-0.242972	0.321726	-0.0470364	0	0	-0.136231	-0.0153974	0.0396395	-0.0535472	-0.427643	0.548617	0.566556	0.788228	0	0	-0.173255	-0.462756	0.0532752	0.715576	1.33306	0	0
1.39	0.64679	1.43178	0.897861	0.675583	1.27058	1.04712	0.382001	-0.0392472	-0.0371576	1.05347	-0.25039	0	0	0.202849	-0.0124498	-0.244015	0.311323	-0.0498919	0	0	-0.13778	-0.00906717	0.0347034	-0.052923	-0.429431	0.54626	0.567458	0.789603	0	0	-0.166197	-0.466709	0.0565029	0.731663	1.338	0	0
1.4	0.664726	1.42988	0.883692	0.674718	1.28202	1.0489	0.3987	-0.0383631	-0.0454599	1.03006	-0.230239	0	0	0.185862	-0.0151801	-0.246054	0.300613	-0.0530982	0	0	-0.138371	-0.00354513	0.0300798	-0.0519589	-0.430726	0.544414	0.567485	0.792176	0	0	-0.159755	-0.470914	0.058542	0.748545	1.34252	0	0
1.41	0.677071	1.42753	0.874911	0.673915	1.29339	1.05044	0.414448	-0.0378152	-0.0542184	1.00157	-0.211557	0	0	0.169728	-0.0176858	-0.248388	0.289828	-0.0566391	0	0	-0.138137	0.00120079	0.0254588	-0.0506226	-0.431601	0.54342	0.566778	0.795246	0	0	-0.154214	-0.475061	0.0588364	0.766311	1.34624	0	0
1.42	0.688433	1.42495	0.867779	0.67312	1.30484	1.05183	0.428408	-0.037511	-0.0642874	0.968111	-0.195527	0	0	0.153546	-0.0201938	-0.249861	0.278565	-0.0605985	0	0	-0.137568	0.00577473	0.0204585	-0.0494549	-0.432057	0.542893	0.565519	0.797808	0	0	-0.149018	-0.47918	0.0584131	0.783896	1.35028	0	0
1.43	0.697651	1.42201	0.863729	0.672341	1.31629	1.05303	0.441045	-0.0374025	-0.0752895	0.930191	-0.182279	0	0	0.137792	-0.0226778	-0.251175	0.266865	-0.0648981	0	0	-0.136488	0.0101535	0.0149207	-0.048363	-0.432014	0.543044	0.563635	0.799747	0	0	-0.143666	-0.483079	0.0573675	0.800778	1.35428	0	0
